<svg width="16" height="16" viewBox="0 0 16 16" fill="none" xmlns="http://www.w3.org/2000/svg">
<path d="M2.66669 9.33345H5.33335V14.0001C5.33335 14.1769 5.40359 14.3465 5.52862 14.4715C5.65364 14.5965 5.82321 14.6668 6.00002 14.6668H10C10.1768 14.6668 10.3464 14.5965 10.4714 14.4715C10.5964 14.3465 10.6667 14.1769 10.6667 14.0001V9.33345H13.3334C13.4589 9.33323 13.5818 9.29763 13.688 9.23072C13.7942 9.16381 13.8793 9.06832 13.9337 8.95519C13.9881 8.84207 14.0094 8.7159 13.9953 8.59119C13.9812 8.46647 13.9323 8.34825 13.854 8.25011L8.52069 1.58345C8.26669 1.26678 7.73335 1.26678 7.47935 1.58345L2.14602 8.25011C2.06778 8.34825 2.0188 8.46647 2.00471 8.59119C1.99062 8.7159 2.01198 8.84207 2.06635 8.95519C2.12072 9.06832 2.20589 9.16381 2.31208 9.23072C2.41827 9.29763 2.54118 9.33323 2.66669 9.33345Z" fill="#FFB23E"/>
</svg>
