<svg width="17" height="16" viewBox="0 0 17 16" fill="none" xmlns="http://www.w3.org/2000/svg">
<path d="M8.49992 1.33333C4.82392 1.33333 1.83325 4.324 1.83325 8C1.83325 11.676 4.82392 14.6667 8.49992 14.6667C12.1759 14.6667 15.1666 11.676 15.1666 8C15.1666 4.324 12.1759 1.33333 8.49992 1.33333ZM8.49992 13.3333C5.55925 13.3333 3.16659 10.9407 3.16659 8C3.16659 5.05933 5.55925 2.66666 8.49992 2.66666C11.4406 2.66666 13.8333 5.05933 13.8333 8C13.8333 10.9407 11.4406 13.3333 8.49992 13.3333Z" fill="#6D7177"/>
<path d="M7.16589 9.058L5.63323 7.528L4.69189 8.472L7.16723 10.942L11.6379 6.47134L10.6952 5.52867L7.16589 9.058Z" fill="#6D7177"/>
</svg>
