<svg width="25" height="24" viewBox="0 0 25 24" fill="none" xmlns="http://www.w3.org/2000/svg">
<path d="M15.4149 15.5821C20.0019 11.5091 23.5559 6.1581 21.4719 3.8111C20.8109 3.0671 19.8879 2.7221 18.8969 2.8281C18.0649 2.9191 17.2099 3.3301 16.3479 4.0201C14.9929 3.31809 13.4804 2.9754 11.9551 3.02477C10.4298 3.07414 8.94272 3.51393 7.63592 4.3021C6.62003 4.90357 5.73369 5.7008 5.02833 6.64751C4.32297 7.59423 3.81263 8.67159 3.52692 9.8171C3.08161 11.5816 3.18842 13.4402 3.83292 15.1421C2.76792 16.3451 1.77892 18.8191 3.00992 20.2051C3.52692 20.7861 4.26692 21.0461 5.15692 21.0461C7.86392 21.0461 11.9649 18.6471 15.4149 15.5821ZM19.1139 4.8151C19.4719 4.7811 19.7459 4.8791 19.9749 5.1381C20.2059 5.3991 20.1439 6.0841 19.7229 7.0671C19.2707 6.3788 18.7266 5.75539 18.1059 5.2141C18.5369 4.9521 18.8819 4.8411 19.1139 4.8151ZM4.88292 17.1181C5.32758 17.763 5.85472 18.347 6.45092 18.8551C5.42592 19.1581 4.73692 19.1381 4.50592 18.8761C4.28892 18.6331 4.50792 17.8071 4.88292 17.1181ZM21.1929 11.2491C19.9779 13.0461 18.2869 14.9201 16.4149 16.5821C14.4809 18.3011 12.3489 19.7901 10.3649 20.7841C10.9805 20.9196 11.6086 20.9907 12.2389 20.9961C13.8652 20.9944 15.4606 20.5513 16.8549 19.7141C18.3034 18.8566 19.4795 17.6065 20.2472 16.1085C21.0149 14.6104 21.3428 12.9257 21.1929 11.2491Z" fill="#6D7177"/>
</svg>
