<svg width="14" height="14" viewBox="0 0 14 14" fill="none" xmlns="http://www.w3.org/2000/svg">
<g clip-path="url(#clip0_3303_12210)">
<path d="M6.83724 0.608398L8.13789 0.611693C8.6505 0.673628 9.09986 0.914781 9.47015 1.32197C9.77258 1.65405 9.93138 2.04016 9.9406 2.46053H13.548C13.6685 2.46123 13.7837 2.5097 13.8685 2.59532C13.9532 2.68093 14.0005 2.79667 14 2.91714C14.0003 2.97675 13.9888 3.03584 13.9662 3.09102C13.9436 3.14619 13.9104 3.19639 13.8684 3.23873C13.8265 3.28106 13.7766 3.31472 13.7216 3.33777C13.6666 3.36083 13.6076 3.37283 13.548 3.37309L12.3383 3.37243V11.0333C12.3383 12.7089 11.713 13.7861 10.3346 13.7861H4.39277C3.01438 13.7861 2.39898 12.7148 2.39898 11.0333V3.37243H1.27426C1.15409 3.37191 1.03903 3.32375 0.954299 3.23853C0.869571 3.15331 0.822091 3.03797 0.822266 2.9178C0.822266 2.66544 1.02454 2.46185 1.27426 2.46185H4.87837C4.8876 2.12318 5.01344 1.7799 5.2434 1.44057C5.58602 0.934547 6.12103 0.657156 6.83724 0.608398ZM11.4343 3.37243H3.30232V11.0333C3.30232 12.2773 3.64494 12.8742 4.39277 12.8742H10.3346C11.0851 12.8742 11.435 12.272 11.435 11.0333L11.4343 3.37243ZM5.24735 4.78574C5.49641 4.78574 5.69869 4.99 5.69869 5.24169V10.5457C5.69895 10.6053 5.68746 10.6644 5.66489 10.7196C5.64231 10.7748 5.60909 10.825 5.56712 10.8673C5.52515 10.9097 5.47525 10.9433 5.42027 10.9664C5.36529 10.9894 5.30631 11.0014 5.24669 11.0017C5.1264 11.001 5.01131 10.9526 4.92669 10.8671C4.84206 10.7816 4.79483 10.666 4.79535 10.5457V5.24169C4.79535 4.99 4.99829 4.78574 5.24735 4.78574ZM7.04282 4.78574C7.29319 4.78574 7.49481 4.99 7.49481 5.24169V10.5457C7.49507 10.6053 7.48359 10.6644 7.46101 10.7196C7.43844 10.7748 7.40522 10.825 7.36325 10.8673C7.32127 10.9097 7.27137 10.9433 7.21639 10.9664C7.16141 10.9894 7.10243 11.0014 7.04282 11.0017C6.92253 11.001 6.80744 10.9526 6.72281 10.8671C6.63819 10.7816 6.59095 10.666 6.59148 10.5457V5.24169C6.59148 4.99 6.79376 4.78574 7.04282 4.78574ZM8.84026 4.78574C9.08932 4.78574 9.2916 4.99 9.2916 5.24169V10.5457C9.29212 10.666 9.24489 10.7816 9.16026 10.8671C9.07564 10.9526 8.96055 11.001 8.84026 11.0017C8.78064 11.0014 8.72166 10.9894 8.66668 10.9664C8.6117 10.9433 8.5618 10.9097 8.51983 10.8673C8.47786 10.825 8.44464 10.7748 8.42206 10.7196C8.39949 10.6644 8.388 10.6053 8.38826 10.5457V5.24169C8.38791 5.12134 8.43529 5.00576 8.52002 4.92029C8.60475 4.83482 8.71991 4.78644 8.84026 4.78574ZM6.86821 1.51898C6.44521 1.54863 6.1665 1.69293 5.98926 1.95516C5.8588 2.1469 5.79357 2.31294 5.78302 2.46119L9.03661 2.46053C9.02738 2.26879 8.95161 2.10012 8.80468 1.93869C8.5767 1.68831 8.32369 1.55258 8.08452 1.5203L6.86821 1.51898Z" fill="#BBBEC2"/>
</g>
<defs>
<clipPath id="clip0_3303_12210">
<rect width="13.1777" height="13.1777" fill="white" transform="translate(0.822266 0.606445)"/>
</clipPath>
</defs>
</svg>
