<svg width="25" height="24" viewBox="0 0 25 24" fill="none" xmlns="http://www.w3.org/2000/svg">
<path d="M5.42913 19.0712C7.32413 20.9662 9.83413 22.0092 12.5001 22.0092C15.1661 22.0092 17.6771 20.9662 19.5711 19.0712C23.4701 15.1722 23.4701 8.82823 19.5711 4.92823C17.6771 3.03423 15.1651 1.99023 12.5001 1.99023C9.83513 1.99023 7.32313 3.03423 5.42913 4.92923C1.53013 8.82723 1.53013 15.1722 5.42913 19.0712ZM12.8091 4.00623C14.4793 4.06635 16.0874 4.65376 17.4031 5.68423L12.5001 10.5862L11.0401 9.12624C12.2011 7.64723 12.8321 5.81823 12.8091 4.00623ZM9.61013 7.69623L7.59813 5.68423C8.5427 4.94384 9.64301 4.42754 10.8161 4.17423C10.8011 5.41023 10.3711 6.65123 9.61013 7.69623ZM8.18613 9.10023C7.16747 9.79617 5.9608 10.1649 4.72713 10.1572C4.98697 9.0447 5.48434 8.00153 6.18513 7.09923L8.18613 9.10023ZM4.51113 12.1462C4.58813 12.1482 4.66513 12.1602 4.74213 12.1602C6.50182 12.1658 8.21488 11.5947 9.61913 10.5342L11.0861 12.0002L6.18513 16.9012C5.1275 15.539 4.54012 13.8706 4.51113 12.1462ZM16.8051 14.8912C17.8471 14.1332 19.0851 13.7032 20.3131 13.6852C20.063 14.8567 19.5512 15.9564 18.8161 16.9022L16.8051 14.8912ZM17.4021 18.3162C16.5004 19.0211 15.4569 19.5226 14.3431 19.7862C14.3318 18.548 14.7008 17.3361 15.4001 16.3142L17.4021 18.3162ZM12.3581 20.0022C10.6297 19.9747 8.95768 19.3826 7.59713 18.3162L12.5001 13.4142L13.9631 14.8772C12.8601 16.3212 12.3041 18.1432 12.3581 20.0022ZM20.4821 11.6922C18.6751 11.6742 16.8491 12.3022 15.3741 13.4602L13.9141 12.0002L18.8151 7.09923C19.8381 8.41788 20.4212 10.0244 20.4821 11.6922Z" fill="#6D7177"/>
</svg>
