<svg width="25" height="24" viewBox="0 0 25 24" fill="none" xmlns="http://www.w3.org/2000/svg">
<path d="M22.7498 3.4099L22.6298 2.1499L21.4298 2.5499C19.3732 3.26445 17.1771 3.48372 15.0198 3.1899C12.753 2.83811 10.4327 3.15072 8.33982 4.0899C7.23029 4.56235 6.25657 5.30482 5.50729 6.24971C4.75801 7.19461 4.25698 8.31191 4.04982 9.4999C3.7812 11.0346 3.91558 12.6127 4.43982 14.0799C4.77737 13.318 5.17182 12.5826 5.61982 11.8799C6.63602 10.3847 8.04409 9.19808 9.68982 8.4499C11.2753 7.72603 13.0082 7.38355 14.7498 7.4499C13.0918 7.7034 11.5048 8.29939 10.0898 9.1999C9.40729 9.62875 8.78225 10.1429 8.22982 10.7299C7.70148 11.3166 7.23564 11.9567 6.83982 12.6399C6.09635 14.0679 5.56733 15.5977 5.26982 17.1799C4.94913 18.7672 4.77506 20.3807 4.74982 21.9999H6.74982C6.84381 20.5477 7.04098 19.1041 7.33982 17.6799C8.72725 18.4291 10.2832 18.8112 11.8598 18.7899C13.3303 18.7889 14.7856 18.4931 16.1398 17.9199C23.7498 14.6699 22.7498 3.8599 22.7498 3.4099Z" fill="#6D7177"/>
</svg>
