<svg width="16" height="16" viewBox="0 0 16 16" fill="none" xmlns="http://www.w3.org/2000/svg">
<path d="M8 6C7.47065 6.00349 6.96397 6.21533 6.58965 6.58965C6.21533 6.96397 6.00349 7.47065 6 8C6 9.09467 6.90533 10 8 10C9.094 10 10 9.09467 10 8C10 6.906 9.094 6 8 6Z" fill="#6D7177"/>
<path d="M8.00003 3.33337C2.91136 3.33337 1.38203 7.74471 1.36803 7.78937L1.29736 8.00004L1.36736 8.21071C1.38203 8.25537 2.91136 12.6667 8.00003 12.6667C13.0887 12.6667 14.618 8.25537 14.632 8.21071L14.7027 8.00004L14.6327 7.78937C14.618 7.74471 13.0887 3.33337 8.00003 3.33337ZM8.00003 11.3334C4.4327 11.3334 3.0507 8.76937 2.71603 8.00004C3.05203 7.22804 4.4347 4.66671 8.00003 4.66671C11.5674 4.66671 12.9494 7.23071 13.284 8.00004C12.948 8.77204 11.5654 11.3334 8.00003 11.3334Z" fill="#6D7177"/>
</svg>
