<svg width="25" height="25" viewBox="0 0 25 25" fill="none" xmlns="http://www.w3.org/2000/svg">
<path d="M22.3325 8.69531C22.3326 8.51383 22.2832 8.33576 22.1895 8.18031L19.4805 3.66531C19.3021 3.37015 19.0506 3.12589 18.7505 2.956C18.4503 2.78612 18.1114 2.69635 17.7665 2.69531H6.89852C6.20052 2.69531 5.54352 3.06731 5.18452 3.66631L2.47552 8.18031C2.38187 8.33576 2.33243 8.51383 2.33252 8.69531C2.33252 9.70031 2.71852 10.6093 3.33252 11.3133V20.6953C3.33252 20.9605 3.43788 21.2149 3.62541 21.4024C3.81295 21.59 4.0673 21.6953 4.33252 21.6953H12.3325C12.5977 21.6953 12.8521 21.59 13.0396 21.4024C13.2272 21.2149 13.3325 20.9605 13.3325 20.6953V15.6953H17.3325V20.6953C17.3325 20.9605 17.4379 21.2149 17.6254 21.4024C17.8129 21.59 18.0673 21.6953 18.3325 21.6953H20.3325C20.5977 21.6953 20.8521 21.59 21.0396 21.4024C21.2272 21.2149 21.3325 20.9605 21.3325 20.6953V11.3133C21.9465 10.6093 22.3325 9.70031 22.3325 8.69531ZM20.3165 8.94631C20.255 9.42922 20.0196 9.87317 19.6545 10.1951C19.2893 10.517 18.8193 10.6948 18.3325 10.6953C17.2295 10.6953 16.3325 9.79831 16.3325 8.69531C16.3325 8.62731 16.3075 8.56731 16.2935 8.50331L16.3135 8.49931L15.5525 4.69531H17.7665L20.3165 8.94631ZM10.3395 8.76031L11.1515 4.69531H13.5125L14.3255 8.76031C14.2905 9.83331 13.4125 10.6953 12.3325 10.6953C11.2525 10.6953 10.3745 9.83331 10.3395 8.76031ZM6.89852 4.69531H9.11252L8.35252 8.49931L8.37252 8.50331C8.35752 8.56731 8.33252 8.62731 8.33252 8.69531C8.33252 9.79831 7.43552 10.6953 6.33252 10.6953C5.84571 10.6948 5.37575 10.517 5.01058 10.1951C4.64541 9.87317 4.41004 9.42922 4.34852 8.94631L6.89852 4.69531ZM10.3325 16.6953H6.33252V13.6953H10.3325V16.6953Z" fill="#7A59FF"/>
</svg>
