<svg width="32" height="32" viewBox="0 0 32 32" fill="none" xmlns="http://www.w3.org/2000/svg">
<path d="M10.667 12C8.49633 12 6.66699 13.8293 6.66699 16C6.66699 18.1707 8.49633 20 10.667 20C12.8377 20 14.667 18.1707 14.667 16C14.667 13.8293 12.8377 12 10.667 12Z" fill="#BBBEC2"/>
<path d="M21.3337 8H10.667C6.26699 8 2.68166 11.5853 2.66699 16V16.0213C2.67615 18.1383 3.52262 20.1656 5.02154 21.6605C6.52046 23.1554 8.55003 23.9965 10.667 24H21.3337C23.4529 23.9965 25.4845 23.1536 26.9838 21.6558C28.4831 20.158 29.328 18.1273 29.3337 16.008V16C29.3217 11.588 25.735 8 21.3337 8ZM21.3337 21.3333H10.667C9.25546 21.3312 7.90214 20.7705 6.90279 19.7736C5.90343 18.7768 5.3393 17.4249 5.33366 16.0133C5.33899 13.0653 7.73099 10.6667 10.667 10.6667H21.3337C24.2697 10.6667 26.6617 13.0653 26.667 16.008C26.6624 17.4203 26.0988 18.7734 25.0994 19.7713C24.0999 20.7693 22.746 21.3309 21.3337 21.3333ZM26.667 16.0213L27.2577 16.016L28.0003 16.0213H26.667Z" fill="#6D7177"/>
</svg>
